<svg xmlns="http://www.w3.org/2000/svg" width="24" height="24" viewBox="0 0 24 24" role="img" aria-label="Quick menu"><!-- Lucide "layout-dashboard" (ISC licence, see docs/assets/icons/README.md) --><title>Quick menu</title><g fill="none" stroke="#F0582C" stroke-width="1.8" stroke-linecap="round" stroke-linejoin="round"><path d="M4 3h5a1 1 0 0 1 1 1v7a1 1 0 0 1 -1 1h-5a1 1 0 0 1 -1 -1v-7a1 1 0 0 1 1 -1Z"/><path d="M15 3h5a1 1 0 0 1 1 1v3a1 1 0 0 1 -1 1h-5a1 1 0 0 1 -1 -1v-3a1 1 0 0 1 1 -1Z"/><path d="M15 12h5a1 1 0 0 1 1 1v7a1 1 0 0 1 -1 1h-5a1 1 0 0 1 -1 -1v-7a1 1 0 0 1 1 -1Z"/><path d="M4 16h5a1 1 0 0 1 1 1v3a1 1 0 0 1 -1 1h-5a1 1 0 0 1 -1 -1v-3a1 1 0 0 1 1 -1Z"/></g></svg>
