<svg xmlns="http://www.w3.org/2000/svg" width="24" height="24" viewBox="0 0 24 24" role="img" aria-label="Saves from every system"><!-- Lucide "folder-sync" (ISC licence, see docs/assets/icons/README.md) --><title>Saves from every system</title><g fill="none" stroke="#F0582C" stroke-width="1.8" stroke-linecap="round" stroke-linejoin="round"><path d="M9 20H4a2 2 0 0 1-2-2V5a2 2 0 0 1 2-2h3.9a2 2 0 0 1 1.69.9l.81 1.2a2 2 0 0 0 1.67.9H20a2 2 0 0 1 2 2v.5"/><path d="M12 10v4h4"/><path d="m12 14 1.535-1.605a5 5 0 0 1 8 1.5"/><path d="M22 22v-4h-4"/><path d="m22 18-1.535 1.605a5 5 0 0 1-8-1.5"/></g></svg>
